<svg width="12" height="7" viewBox="0 0 12 7" fill="none" xmlns="http://www.w3.org/2000/svg">
<path d="M11.0534 0.913809L6.05336 5.91381C6.00693 5.9603 5.95178 5.99718 5.89108 6.02234C5.83038 6.0475 5.76532 6.06045 5.69961 6.06045C5.63391 6.06045 5.56884 6.0475 5.50814 6.02234C5.44744 5.99718 5.3923 5.9603 5.34586 5.91381L0.345863 0.913809C0.275857 0.843881 0.228173 0.754755 0.208848 0.657712C0.189523 0.56067 0.199425 0.460075 0.237301 0.368663C0.275177 0.277252 0.339325 0.199134 0.421621 0.144199C0.503918 0.0892632 0.600665 0.0599809 0.699613 0.0600587H10.6996C10.7986 0.0599809 10.8953 0.0892632 10.9776 0.144199C11.0599 0.199134 11.124 0.277252 11.1619 0.368663C11.1998 0.460075 11.2097 0.56067 11.1904 0.657712C11.1711 0.754755 11.1234 0.843881 11.0534 0.913809Z" fill="#8391A1"/>
</svg>
